<svg xmlns="http://www.w3.org/2000/svg" viewBox="0 0 1672 941"><circle cx="9" cy="341" r="1.4" fill="#ffb45e" opacity="0.8"/><circle cx="20" cy="325" r="1" fill="#ffd88c" opacity="0.7"/><circle cx="28" cy="311" r="1.2" fill="#ff9444" opacity="0.6"/><circle cx="13" cy="296" r="0.8" fill="#ffe8b0" opacity="0.4"/><circle cx="275" cy="274" r="1.4" fill="#ffb45e" opacity="0.8"/><circle cx="286" cy="258" r="1" fill="#ffd88c" opacity="0.7"/><circle cx="294" cy="244" r="1.2" fill="#ff9444" opacity="0.6"/><circle cx="279" cy="229" r="0.8" fill="#ffe8b0" opacity="0.4"/><circle cx="504" cy="255" r="1.4" fill="#ffb45e" opacity="0.8"/><circle cx="515" cy="239" r="1" fill="#ffd88c" opacity="0.7"/><circle cx="523" cy="225" r="1.2" fill="#ff9444" opacity="0.6"/><circle cx="508" cy="210" r="0.8" fill="#ffe8b0" opacity="0.4"/><circle cx="703" cy="306" r="1.4" fill="#ffb45e" opacity="0.8"/><circle cx="714" cy="290" r="1" fill="#ffd88c" opacity="0.7"/><circle cx="722" cy="276" r="1.2" fill="#ff9444" opacity="0.6"/><circle cx="707" cy="261" r="0.8" fill="#ffe8b0" opacity="0.4"/><circle cx="1360" cy="388" r="1.4" fill="#ffb45e" opacity="0.8"/><circle cx="1371" cy="372" r="1" fill="#ffd88c" opacity="0.7"/><circle cx="1379" cy="358" r="1.2" fill="#ff9444" opacity="0.6"/><circle cx="1364" cy="343" r="0.8" fill="#ffe8b0" opacity="0.4"/><circle cx="1593" cy="443" r="1.4" fill="#ffb45e" opacity="0.8"/><circle cx="1604" cy="427" r="1" fill="#ffd88c" opacity="0.7"/><circle cx="1612" cy="413" r="1.2" fill="#ff9444" opacity="0.6"/><circle cx="1597" cy="398" r="0.8" fill="#ffe8b0" opacity="0.4"/><circle cx="1325" cy="792" r="1.4" fill="#ffb45e" opacity="0.8"/><circle cx="1336" cy="776" r="1" fill="#ffd88c" opacity="0.7"/><circle cx="1344" cy="762" r="1.2" fill="#ff9444" opacity="0.6"/><circle cx="1329" cy="747" r="0.8" fill="#ffe8b0" opacity="0.4"/></svg>
