<svg xmlns="http://www.w3.org/2000/svg" viewBox="0 0 96 96" fill="none"><defs><linearGradient id="g" x1="23" y1="31" x2="73" y2="64" gradientUnits="userSpaceOnUse"><stop stop-color="#fff5a3"/><stop offset="1" stop-color="#e6bd37"/></linearGradient></defs><circle cx="48" cy="48" r="43" fill="#151205" stroke="#89752e" stroke-width="2"/><circle cx="48" cy="48" r="38" stroke="#f6df67" stroke-opacity=".28"/><path d="M22 56c18-3 30-13 43-31-1 10-5 18-12 25 8-4 14-9 20-15-3 13-13 24-27 31-8 4-15 5-23 5 8-4 14-8 20-13-7 2-14 2-21-2Z" fill="url(#g)" stroke="#fff2a6" stroke-width="1" stroke-linejoin="round"/><path d="M28 61h22M24 66h17" stroke="#f6df67" stroke-width="2" stroke-linecap="round" opacity=".7"/></svg>